:SAMPLES-PER-SECOND 30
:FULLY-SPECIFIED
:DEGREES
506
root  -4.19704 41.0032 -1.19589 -2.51569 -75.8369 5.57269
RightUpLeg  4.35288 -1.90644 0.192805
RightLeg  -7.75803 -36.0817 5.92009
RightFoot  -0.495864 -0.0982765 1.00398
RightToes  -3.10678e-008 1.75238e-005 3.56266e-009
Spine  9.78582 -1.00881 -5.35989
Spine1  -15.1557 -1.51345 6.55157
HEad  -0.242193 23.1763 1.19103
LeftShoulder1  -0.0490301 3.76127 -11.835
LeftArm  -59.9712 -28.837 -14.8077
LeftForeArm  27.6825 -60.2803 -17.1725
LeftHand  -0.685624 -3.8683 8.81448
RightShoulder  0.825423 -0.0633446 17.5011
RightArm  6.05665 -22.0287 57.1454
RightForeArm  37.8716 69.1214 26.2666
RightHand  -0.207844 8.20884 -2.14949
LeftUpLeg  1.00454 0.467711 2.68765
LeftLeg  -6.78405 5.10628 -1.19454
LeftFoot  3.93924 0.531 -4.13439
LeftToes  4.7643e-008 1.47522e-008 1.32869e-009
507
root  -4.1209 41.0416 -1.19807 -3.03156 -76.6485 6.26709
RightUpLeg  4.18498 -1.92997 -0.0133963
RightLeg  -8.19927 -35.226 6.11761
RightFoot  0.0276113 -0.103594 1.04286
RightToes  -3.10678e-008 1.75238e-005 3.56266e-009
Spine  9.86948 -1.49074 -6.11823
Spine1  -15.1366 -2.07469 7.61139
HEad  -0.264825 23.0856 1.06261
LeftShoulder1  -0.0751886 3.90658 -11.5154
LeftArm  -64.0168 -29.6791 -12.1121
LeftForeArm  24.1284 -49.2373 -11.0747
LeftHand  -0.841024 -3.48213 11.2611
RightShoulder  0.877264 0.127849 17.6703
RightArm  6.17695 -22.0286 57.0729
RightForeArm  37.7575 69.1421 26.3225
RightHand  -0.21591 7.78749 -2.26815
LeftUpLeg  0.991938 0.601954 2.74411
LeftLeg  -7.15994 5.64182 -1.51235
LeftFoot  4.40268 0.627281 -4.72942
LeftToes  4.7643e-008 1.47522e-008 1.32869e-009
508
root  -4.02165 41.0858 -1.21204 -3.271 -77.8244 6.71399
RightUpLeg  3.7688 -1.95806 -0.154063
RightLeg  -8.26259 -34.0343 6.15444
RightFoot  0.604223 -0.119039 1.17638
RightToes  -3.10678e-008 1.75238e-005 3.56266e-009
Spine  10.518 -1.83377 -6.52828
Spine1  -15.8285 -2.43991 8.1153
HEad  -0.406378 22.8598 1.77536
LeftShoulder1  -0.0961074 4.04186 -10.5188
LeftArm  -67.0807 -28.938 -10.1547
LeftForeArm  22.6916 -41.3985 -8.33641
LeftHand  -0.732023 -2.14481 11.4533
RightShoulder  0.876065 0.107566 17.7714
RightArm  6.05097 -22.6085 57.1413
RightForeArm  38.3256 69.3247 26.5448
RightHand  -0.228811 8.18134 -2.33075
LeftUpLeg  0.826736 0.738608 2.87504
LeftLeg  -7.34521 6.54212 -1.77609
LeftFoot  4.89755 0.698528 -5.10397
LeftToes  4.7643e-008 1.47522e-008 1.32869e-009
509
root  -3.9207 41.1255 -1.21272 -3.61462 -79.3762 7.38232
RightUpLeg  2.92451 -1.90853 -0.268491
RightLeg  -7.61661 -32.4905 5.68183
RightFoot  0.983401 -0.148447 1.43607
RightToes  -3.10678e-008 1.75238e-005 3.56266e-009
Spine  10.4004 -1.80555 -6.91553
Spine1  -15.4365 -2.47914 8.62827
HEad  -1.16704 22.3008 2.01658
LeftShoulder1  -0.118314 4.16724 -10.5526
LeftArm  -69.9922 -28.2635 -8.66339
LeftForeArm  22.8536 -37.2144 -7.10234
LeftHand  -0.804497 -2.73538 11.7106
RightShoulder  0.768768 -0.296169 17.4794
RightArm  5.96314 -22.6192 57.3818
RightForeArm  38.1781 69.2753 26.4887
RightHand  -0.226213 8.41898 -2.27482
LeftUpLeg  0.565431 0.768538 2.93092
LeftLeg  -7.49608 8.04031 -2.01552
LeftFoot  5.37828 0.729568 -5.18654
LeftToes  4.7643e-008 1.47522e-008 1.32869e-009
510
root  -3.81981 41.1464 -1.20782 -3.87512 -80.6183 7.6908
RightUpLeg  2.80918 -1.78952 -0.269585
RightLeg  -7.97527 -31.3202 5.7626
RightFoot  1.35694 -0.168153 1.59445
RightToes  -3.10678e-008 1.75238e-005 3.56266e-009
Spine  10.9425 -1.959 -6.9106
Spine1  -15.8444 -2.62446 8.5005
HEad  -1.42544 22.1373 2.37118
LeftShoulder1  -0.20598 4.66784 -10.3463
LeftArm  -71.4787 -27.1796 -8.10526
LeftForeArm  24.0907 -35.9151 -6.67909
LeftHand  -0.807398 -3.05044 11.3271
RightShoulder  0.831793 -0.0806584 17.834
RightArm  6.07338 -22.7576 56.7191
RightForeArm  37.0517 68.9409 26.1117
RightHand  -0.159789 7.87701 -1.76941
LeftUpLeg  0.48004 0.930061 3.0582
LeftLeg  -7.42969 9.0826 -2.22048
LeftFoot  5.53596 0.724485 -5.10908
LeftToes  4.7643e-008 1.47522e-008 1.32869e-009
511
root  -3.7297 41.1313 -1.20813 -4.7132 -81.7425 8.46497
RightUpLeg  2.80358 -1.87132 -0.371382
RightLeg  -8.20022 -30.1631 5.92807
RightFoot  1.27156 -0.159513 1.52071
RightToes  -3.10678e-008 1.75238e-005 3.56266e-009
Spine  11.5074 -1.87852 -6.82634
Spine1  -16.1973 -2.53589 8.22627
HEad  -1.25168 20.4569 2.86791
LeftShoulder1  -0.245566 4.88822 -10.4082
LeftArm  -72.0659 -26.3692 -8.00482
LeftForeArm  24.1398 -36.4464 -6.82305
LeftHand  -0.766712 -2.56747 11.3924
RightShoulder  0.761325 -0.322931 17.451
RightArm  5.78733 -24.388 56.5874
RightForeArm  39.4248 70.0053 27.5974
RightHand  -0.175181 7.896 -1.90078
LeftUpLeg  0.582008 0.961615 3.05783
LeftLeg  -7.40928 10.1552 -2.32033
LeftFoot  5.28062 0.726869 -5.19439
LeftToes  4.7643e-008 1.47522e-008 1.32869e-009
512
root  -3.64747 41.0999 -1.20794 -5.66937 -82.609 9.34326
RightUpLeg  2.77088 -1.77988 -0.344367
RightLeg  -8.33773 -29.4638 5.88401
RightFoot  1.1035 -0.111912 1.09485
RightToes  -3.10678e-008 1.75238e-005 3.56266e-009
Spine  11.3874 -1.82507 -6.95553
Spine1  -15.7284 -2.51806 8.17672
HEad  -1.15882 19.3471 3.13841
LeftShoulder1  -0.257794 4.96714 -10.2614
LeftArm  -71.3952 -25.2279 -8.21806
LeftForeArm  24.1563 -37.8433 -7.21209
LeftHand  -0.834647 -2.73402 12.1217
RightShoulder  0.758483 -0.314232 17.2798
RightArm  5.79205 -24.6553 56.2608
RightForeArm  38.9753 69.9479 27.5772
RightHand  -0.189018 7.67894 -2.0404
LeftUpLeg  0.800217 0.878035 2.98184
LeftLeg  -7.62971 11.0843 -2.36444
LeftFoot  4.99429 0.712608 -5.17473
LeftToes  4.7643e-008 1.47522e-008 1.32869e-009
513
root  -3.5759 41.0692 -1.20044 -5.38354 -83.0867 8.99072
RightUpLeg  2.61199 -1.67339 -0.18642
RightLeg  -8.16946 -29.2938 5.74133
RightFoot  0.940896 -0.0845627 0.843924
RightToes  -3.10678e-008 1.75238e-005 3.56266e-009
Spine  11.0584 -1.91742 -6.85891
Spine1  -15.1207 -2.63063 8.14472
HEad  -0.636394 18.1647 3.5384
LeftShoulder1  -0.309406 5.23997 -10.4952
LeftArm  -70.2995 -24.564 -9.03369
LeftForeArm  24.3463 -40.4688 -7.98256
LeftHand  -0.916306 -2.78197 13.2095
RightShoulder  0.763191 -0.332804 17.594
RightArm  6.01144 -24.7391 55.5703
RightForeArm  38.4634 69.8696 27.5205
RightHand  -0.243917 8.09104 -2.47349
LeftUpLeg  1.04257 0.760925 2.98608
LeftLeg  -8.03702 11.6455 -2.33803
LeftFoot  4.83595 0.675044 -4.95576
LeftToes  4.7643e-008 1.47522e-008 1.32869e-009
514
root  -3.5162 41.0614 -1.18756 -4.74896 -83.2609 8.25848
RightUpLeg  2.57382 -1.65507 -0.125186
RightLeg  -8.06947 -29.1522 5.73597
RightFoot  0.870907 -0.0791597 0.811097
RightToes  -3.10678e-008 1.75238e-005 3.56266e-009
Spine  11.0497 -2.11607 -6.60405
Spine1  -15.1285 -2.79644 7.84776
HEad  0.30142 17.2468 3.81553
LeftShoulder1  -0.292797 5.12749 -10.7396
LeftArm  -68.444 -22.9546 -10.3559
LeftForeArm  25.7385 -44.9621 -9.38477
LeftHand  -0.776296 -3.13021 10.8263
RightShoulder  0.764049 -0.348999 17.757
RightArm  5.70246 -25.0715 55.6111
RightForeArm  38.8575 69.8286 27.3718
RightHand  -0.199734 8.1563 -2.08458
LeftUpLeg  1.1036 0.7194 3.00083
LeftLeg  -8.08384 11.9036 -2.27257
LeftFoot  4.74232 0.654907 -4.8384
LeftToes  4.7643e-008 1.47522e-008 1.32869e-009
515
root  -3.44765 41.0604 -1.18467 -4.66003 -83.219 8.06641
RightUpLeg  2.43356 -1.73476 -0.169367
RightLeg  -7.71676 -29.14 5.63868
RightFoot  0.74401 -0.0855662 0.940813
RightToes  -3.10678e-008 1.75238e-005 3.56266e-009
Spine  11.0424 -2.23253 -6.57374
Spine1  -14.8429 -2.92644 7.75233
HEad  0.71447 16.4967 3.6857
LeftShoulder1  -0.261304 4.89783 -11.5194
LeftArm  -66.0926 -21.1127 -11.5972
LeftForeArm  26.4356 -51.1807 -11.8722
LeftHand  -0.726334 -3.8484 9.37129
RightShoulder  0.690825 -0.628717 17.5704
RightArm  5.67041 -25.035 56.0647
RightForeArm  38.4332 69.869 27.5271
RightHand  -0.190271 7.94925 -2.0272
LeftUpLeg  1.00049 0.733437 2.99531
LeftLeg  -7.88487 11.8729 -2.24102
LeftFoot  4.73139 0.634831 -4.69916
LeftToes  4.7643e-008 1.47522e-008 1.32869e-009
